# xmcd CD database file
#
# Track frame offsets:
#	150
#	20300
#	38957
#
# Disc length: 783 seconds
#
# Revision: 4
# Processed by: cddbd v1.5PL3 Copyright (c) Steve Scherf et al.
# Submitted via: CDex 1.50beta8
#
DISCID=1a030d03
DTITLE=ママスタジヲ - アンダーグラウンド
DYEAR=1900
DGENRE=JPop
TTITLE0=アンダーグラウンド
TTITLE1=吠えてみる
TTITLE2=ハイ・フィデリティ
EXTD=
EXTT0=
EXTT1=
EXTT2=
PLAYORDER=
